Coordinates
version=1
nRows=43
nColumns=12
inDegrees=yes

Units are S.I. units (second, meters, Newtons, ...)
Angles are in degrees

endheader
time	SC_y	SC_z	SC_x	AC_y	AC_z	AC_x	GH_y	GH_z	GH_yy	EL_x	PS_y
       0.0              -39.19        -0.5735          57.08          43.21        -0.3635          -16.6         -47.41         -19.63         -151.3          105.7          6.679
  0.009197              -39.19        -0.5731          57.07          43.21        -0.3662          -16.6         -47.39         -19.62         -151.2          105.7          6.682
   0.01839              -39.19        -0.5726          57.07           43.2         -0.369          -16.6         -47.38         -19.62         -151.2          105.6          6.685
   0.02759              -39.19        -0.5721          57.07           43.2        -0.3719         -16.59         -47.37         -19.61         -151.2          105.6          6.688
   0.03679              -39.19        -0.5716          57.07           43.2        -0.3751         -16.59         -47.36          -19.6         -151.1          105.6          6.691
   0.04598              -39.19        -0.5711          57.06           43.2        -0.3785         -16.59         -47.34          -19.6         -151.1          105.6          6.695
   0.05518               -39.2        -0.5705          57.06           43.2        -0.3821         -16.58         -47.33         -19.59         -151.1          105.6          6.699
   0.06438               -39.2        -0.5699          57.06          43.19         -0.386         -16.58         -47.31         -19.58         -151.0          105.6          6.703
   0.07357               -39.2        -0.5692          57.05          43.19        -0.3901         -16.58         -47.29         -19.57         -151.0          105.6          6.707
   0.08277               -39.2        -0.5685          57.05          43.19        -0.3946         -16.57         -47.27         -19.56         -150.9          105.5          6.712
   0.09197              -39.21        -0.5677          57.04          43.18        -0.3993         -16.57         -47.25         -19.55         -150.9          105.5          6.717
    0.1012              -39.21        -0.5669          57.04          43.18        -0.4044         -16.56         -47.23         -19.54         -150.8          105.5          6.722
    0.1104              -39.21         -0.566          57.03          43.18          -0.41         -16.55         -47.21         -19.53         -150.7          105.5          6.728
    0.1196              -39.21         -0.565          57.03          43.17        -0.4159         -16.55         -47.18         -19.51         -150.7          105.4          6.734
    0.1288              -39.22         -0.564          57.02          43.17        -0.4224         -16.54         -47.16          -19.5         -150.6          105.4          6.741
     0.138              -39.22        -0.5628          57.02          43.16        -0.4294         -16.53         -47.13         -19.48         -150.5          105.4          6.748
    0.1471              -39.22        -0.5616          57.01          43.16         -0.437         -16.53         -47.09         -19.47         -150.4          105.4          6.756
    0.1563              -39.23        -0.5602           57.0          43.15        -0.4453         -16.52         -47.06         -19.45         -150.3          105.3          6.765
    0.1655              -39.23        -0.5588          56.99          43.15        -0.4544         -16.51         -47.02         -19.43         -150.2          105.3          6.774
    0.1747              -39.24        -0.5572          56.98          43.14        -0.4643          -16.5         -46.98          -19.4         -150.1          105.2          6.785
    0.1839              -39.24        -0.5554          56.97          43.13        -0.4752         -16.49         -46.93         -19.38         -150.0          105.2          6.796
    0.1931              -39.25        -0.5534          56.96          43.13        -0.4872         -16.47         -46.88         -19.35         -149.8          105.1          6.809
    0.2023              -39.26        -0.5513          56.95          43.12        -0.5005         -16.46         -46.82         -19.32         -149.7          105.1          6.823
    0.2115              -39.26        -0.5489          56.94          43.11        -0.5151         -16.44         -46.76         -19.29         -149.5          105.0          6.838
    0.2207              -39.27        -0.5463          56.92           43.1        -0.5315         -16.43         -46.69         -19.25         -149.3          105.0          6.855
    0.2299              -39.28        -0.5433          56.91          43.09        -0.5497         -16.41         -46.61         -19.21         -149.1          104.9          6.874
    0.2391              -39.29          -0.54          56.89          43.07        -0.5701         -16.39         -46.53         -19.17         -148.9          104.8          6.895
    0.2483               -39.3        -0.5363          56.87          43.06         -0.593         -16.36         -46.43         -19.12         -148.6          104.7           6.92
    0.2575              -39.31        -0.5321          56.84          43.04        -0.6189         -16.34         -46.32         -19.06         -148.3          104.6          6.947
    0.2667              -39.33        -0.5273          56.82          43.02        -0.6484          -16.3         -46.19         -18.99         -148.0          104.5          6.977
    0.2759              -39.35        -0.5219          56.78           43.0        -0.6819         -16.27         -46.05         -18.92         -147.6          104.3          7.013
    0.2851              -39.37        -0.5156          56.75          42.97        -0.7205         -16.23         -45.89         -18.83         -147.1          104.2          7.053
    0.2943              -39.39        -0.5084          56.71          42.95         -0.765         -16.18          -45.7         -18.73         -146.6          104.0            7.1
    0.3035              -39.41           -0.5          56.66          42.91        -0.8167         -16.13         -45.48         -18.62         -146.0          103.8          7.154
    0.3127              -39.44        -0.4902          56.61          42.87        -0.8772         -16.06         -45.22         -18.48         -145.3          103.5          7.217
    0.3219              -39.48        -0.4786          56.54          42.83        -0.9486         -15.99         -44.92         -18.32         -144.5          103.2          7.292
    0.3311              -39.52        -0.4649          56.46          42.77         -1.033          -15.9         -44.56         -18.13         -143.5          102.9           7.38
    0.3403              -39.57        -0.4484          56.37           42.7         -1.135         -15.79         -44.12          -17.9         -142.3          102.4          7.487
    0.3495              -39.63        -0.4284          56.26          42.62         -1.258         -15.67          -43.6         -17.63         -140.9          101.9          7.615
    0.3587              -39.71        -0.4041          56.12          42.53         -1.408         -15.51         -42.96         -17.29         -139.1          101.3          7.773
    0.3679               -39.8         -0.374          55.95          42.41         -1.593         -15.31         -42.17         -16.88         -137.0          100.5          7.967
    0.3771              -39.92        -0.3365          55.74          42.25         -1.825         -15.07         -41.19         -16.36         -134.3          99.54          8.209
    0.3863              -40.06        -0.2893          55.47          42.07         -2.116         -14.77         -39.95         -15.71         -130.9          98.32          8.513
